<svg width="159" height="74" viewBox="0 0 159 74" fill="none" xmlns="http://www.w3.org/2000/svg">
<path d="M149.813 43.8051C147.012 43.8051 144.828 43.0395 143.259 41.5084C141.691 39.9773 140.906 37.8486 140.906 35.1225V18.4855H132.392V12.9959H140.906V4.31329H146.956V12.9959H159V18.4855H146.956V35.1225C146.956 37.2511 147.983 38.3155 150.037 38.3155H158.44V43.8051H149.813Z" fill="white"/>
<path d="M112.808 44.3653C109.111 44.3653 106.161 43.3009 103.958 41.1723C101.754 39.0063 100.653 36.0748 100.653 32.3777V12.9959H106.702V32.3777C106.702 34.5063 107.244 36.1681 108.327 37.3632C109.41 38.5208 110.904 39.0997 112.808 39.0997C114.75 39.0997 116.263 38.5208 117.346 37.3632C118.466 36.1681 119.026 34.5063 119.026 32.3777V12.9959H125.076V32.3777C125.076 36.0748 123.956 39.0063 121.715 41.1723C119.512 43.3009 116.543 44.3653 112.808 44.3653Z" fill="white"/>
<path d="M79.2759 44.3092C76.7365 44.3092 74.5332 43.8238 72.6659 42.8528C70.7987 41.8818 69.361 40.5001 68.3527 38.7076C67.3444 36.915 66.8402 34.8051 66.8402 32.3777V24.4233C66.8402 21.9586 67.3444 19.8486 68.3527 18.0934C69.361 16.3009 70.7987 14.9191 72.6659 13.9482C74.5332 12.9772 76.7365 12.4917 79.2759 12.4917C81.8154 12.4917 84.0187 12.9772 85.8859 13.9482C87.7531 14.9191 89.1909 16.3009 90.1992 18.0934C91.2075 19.8486 91.7116 21.9586 91.7116 24.4233V32.3777C91.7116 34.8051 91.2075 36.915 90.1992 38.7076C89.1909 40.5001 87.7531 41.8818 85.8859 42.8528C84.0187 43.8238 81.8154 44.3092 79.2759 44.3092ZM79.2759 38.9876C81.3299 38.9876 82.917 38.4275 84.0373 37.3071C85.1577 36.1495 85.7179 34.5063 85.7179 32.3777V24.4233C85.7179 22.2573 85.1577 20.6142 84.0373 19.4938C82.917 18.3735 81.3299 17.8133 79.2759 17.8133C77.2593 17.8133 75.6722 18.3735 74.5145 19.4938C73.3942 20.6142 72.834 22.2573 72.834 24.4233V32.3777C72.834 34.5063 73.3942 36.1495 74.5145 37.3071C75.6722 38.4275 77.2593 38.9876 79.2759 38.9876Z" fill="white"/>
<path d="M44.6235 44.3092C42.4202 44.3092 40.4782 43.9545 38.7977 43.2449C37.1546 42.5354 35.8475 41.5644 34.8766 40.332C33.9429 39.0623 33.4015 37.5686 33.2521 35.8507H39.3019C39.4513 36.859 39.9928 37.6806 40.9264 38.3154C41.86 38.913 43.0924 39.2117 44.6235 39.2117H47.0322C48.8621 39.2117 50.2438 38.8383 51.1774 38.0914C52.111 37.3445 52.5779 36.3549 52.5779 35.1225C52.5779 33.9275 52.1484 32.9939 51.2895 32.3217C50.4679 31.6121 49.2355 31.1453 47.5924 30.9212L43.6152 30.3051C40.3289 29.7822 37.9015 28.8486 36.333 27.5042C34.8019 26.1225 34.0363 24.0872 34.0363 21.3984C34.0363 18.5602 34.9513 16.3756 36.7811 14.8444C38.6484 13.276 41.3932 12.4917 45.0156 12.4917H47.1442C50.3559 12.4917 52.914 13.2386 54.8185 14.7324C56.7604 16.1888 57.8621 18.1494 58.1235 20.6142H52.0737C51.9243 19.7179 51.4202 18.9897 50.5613 18.4295C49.7397 17.8693 48.6007 17.5893 47.1442 17.5893H45.0156C43.2604 17.5893 41.972 17.9254 41.1504 18.5976C40.3662 19.2324 39.9741 20.1847 39.9741 21.4544C39.9741 22.5747 40.3289 23.415 41.0384 23.9752C41.7479 24.5353 42.8496 24.9274 44.3434 25.1515L48.4326 25.8237C51.9057 26.3092 54.4451 27.2801 56.0509 28.7366C57.694 30.1557 58.5156 32.2283 58.5156 34.9544C58.5156 37.9047 57.5447 40.2013 55.6028 41.8445C53.6982 43.4877 50.8413 44.3092 47.0322 44.3092H44.6235Z" fill="#00A3FF"/>
<path d="M0 53.8881V48.2864H7.73031C9.78426 48.2864 11.3901 47.7263 12.5478 46.6059C13.7054 45.4856 14.2843 43.8985 14.2843 41.8445V18.5415H1.6805V12.9959H20.3341V41.9005C20.3341 45.5976 19.2137 48.5105 16.9731 50.6391C14.7324 52.8051 11.7075 53.8881 7.89836 53.8881H0ZM17.0291 7.67429C15.722 7.67429 14.6764 7.33819 13.8921 6.66599C13.1079 5.95645 12.7158 5.02284 12.7158 3.86516C12.7158 2.67013 13.1079 1.73652 13.8921 1.06432C14.6764 0.354774 15.722 0 17.0291 0C18.3361 0 19.3818 0.354774 20.166 1.06432C20.9503 1.73652 21.3424 2.67013 21.3424 3.86516C21.3424 5.02284 20.9503 5.95645 20.166 6.66599C19.3818 7.33819 18.3361 7.67429 17.0291 7.67429Z" fill="#00A3FF"/>
</svg>
